inDegrees=no
num_controls=7
num_derivatives=13
num_iterations=156
num_multipliers=7
num_parameters=0
num_slacks=7
num_states=26
objective=0.497169
objective_accelerations=0.032306
objective_balance=0.003228
objective_effort=0.034998
objective_height=0.421148
objective_ligament=0.005489
solver_duration=1791.112568
status=Solve_Succeeded
success=true
DataType=double
version=3
OpenSimVersion=4.5
endheader
time	/jointset/ground_pelvis/pelvis_tilt/value	/jointset/ground_pelvis/pelvis_tx/value	/jointset/ground_pelvis/pelvis_ty/value	/jointset/hip_r/hip_flexion_r/value	/jointset/hip_r/hip_adduction_r/value	/jointset/hip_r/hip_rotation_r/value	/jointset/back/lumbar_extension/value	/jointset/patellofemoral_r/patellar_flexion_r/value	/jointset/knee_r/knee_flexion_r/value	/jointset/knee_r/knee_adduction_r/value	/jointset/knee_r/knee_rotation_r/value	/jointset/ankle_r/ankle_angle_r/value	/jointset/subtalar_r/subtalar_angle_r/value	/jointset/ground_pelvis/pelvis_tilt/speed	/jointset/ground_pelvis/pelvis_tx/speed	/jointset/ground_pelvis/pelvis_ty/speed	/jointset/hip_r/hip_flexion_r/speed	/jointset/hip_r/hip_adduction_r/speed	/jointset/hip_r/hip_rotation_r/speed	/jointset/back/lumbar_extension/speed	/jointset/patellofemoral_r/patellar_flexion_r/speed	/jointset/knee_r/knee_flexion_r/speed	/jointset/knee_r/knee_adduction_r/speed	/jointset/knee_r/knee_rotation_r/speed	/jointset/ankle_r/ankle_angle_r/speed	/jointset/subtalar_r/subtalar_angle_r/speed	/forceset/tau_hip_flexion_r	/forceset/tau_hip_adduction_r	/forceset/tau_hip_rotation_r	/forceset/tau_knee_flexion_r	/forceset/tau_ankle_angle_r	/forceset/tau_subtalar_angle_r	/forceset/tau_lumbar_extension	lambda_cid13_p0	lambda_cid14_p0	lambda_cid14_p1	lambda_cid14_p2	lambda_cid14_p3	lambda_cid14_p4	lambda_cid14_p5	/jointset/ground_pelvis/pelvis_tilt/accel	/jointset/ground_pelvis/pelvis_tx/accel	/jointset/ground_pelvis/pelvis_ty/accel	/jointset/hip_r/hip_flexion_r/accel	/jointset/hip_r/hip_adduction_r/accel	/jointset/hip_r/hip_rotation_r/accel	/jointset/back/lumbar_extension/accel	/jointset/patellofemoral_r/patellar_flexion_r/accel	/jointset/knee_r/knee_flexion_r/accel	/jointset/knee_r/knee_adduction_r/accel	/jointset/knee_r/knee_rotation_r/accel	/jointset/ankle_r/ankle_angle_r/accel	/jointset/subtalar_r/subtalar_angle_r/accel	gamma_cid13_p0	gamma_cid14_p0	gamma_cid14_p1	gamma_cid14_p2	gamma_cid14_p3	gamma_cid14_p4	gamma_cid14_p5
1.5	-0.106792070202507	0.06391083627841376	0.8717643858667438	0.6600262158045719	-0.2278867731356962	-0.1437656694320134	-0.2778676386469649	0.6428994542096366	0.6428994542096365	0.04295353767362153	0.1744999686992685	0.2596142964372347	0.05864303214480432	0.2295322372544214	0.1159756444802076	0.3210033340500199	-1.432009573849032	0.01951421028298882	-0.2819224915500242	0.6993342470419859	-1.733932122505935	-1.733932122505934	0.2738864798818293	7.550148343747071e-05	-0.6206350961744255	-0.1521979641814102	-0.06455641659101478	-0.01687940964413103	0.006674240240653982	-0.318844485018182	0.04798750125876212	-0.01039142969567784	0.1215355510934757	-34.4613660615025	-26.27024212118507	-4.943072752612776	-3.514718798109925	4.759520147745239	-662.5692316955336	58.18145453703971	0.04463370539709912	0.2350166984790254	-0.4447317723899529	-0.6775796146431902	-0.02150251010553102	-0.5353224376249254	1.171983165628954	-1.003768942290713	-1.003768942290712	0.3983067223190132	-0.004907823791420261	-0.4931092322821569	-0.04670881101848099	1.18155726286308e-07	1.516270106716784e-07	-6.109746468388142e-07	1.234620758941404e-06	-1.471264652992094e-08	1.817569222321763e-07	-9.204845763969352e-07
1.51	-0.1044949104436711	0.06508217979129864	0.8749514635865626	0.6456741902009029	-0.2276934399359306	-0.1466108789690554	-0.2708166514517685	0.6255124348260294	0.6255124348260294	0.04571397204487301	0.1745007907796291	0.2533839572169562	0.05711793148686709	0.2298680918602037	0.1182742237187294	0.3163446547213499	-1.438191249259704	0.01915451079074446	-0.2871079138039812	0.7107534443408229	-1.743213350755869	-1.743213350755868	0.2781749671194357	8.560605286848816e-05	-0.6253386639119606	-0.1527908715832787	-0.05904187148714559	-0.01874970902545091	0.006040791547459201	-0.3158345935553965	0.0522025809824643	-0.01120841885581907	0.1164033850979223	-35.34650138258075	-24.79725399857392	-4.939014995117472	-3.630693436136026	4.224339507314081	-659.5180615071706	58.27301491397425	0.02333259697541592	0.2244544047773921	-0.4865312777960709	-0.5577988667077498	-0.04275557680943814	-0.5082192138888368	1.110425863543537	-0.8515657092134562	-0.8515657092134878	0.4402649451096056	0.003690055565331352	-0.4448513717722001	-0.06086620144028179	1.274969319085968e-07	1.519055995952901e-07	-7.40094082029918e-07	1.248103039038257e-06	-1.619978377194336e-09	1.872441181713527e-07	-1.008589519462229e-06
1.52	-0.102195337887016	0.06627594427021646	0.8780899354601567	0.6312664803706413	-0.2275036141126926	-0.1495075561475585	-0.2636547647132773	0.608040349971349	0.6080403499713493	0.04851652033262616	0.1745016579973349	0.2471094081538458	0.05558784485557733	0.2300147968182512	0.1204598376867967	0.3112821648050574	-1.443146419167518	0.01881273497747823	-0.2922160198422489	0.7215141557009589	-1.750945216720551	-1.750945216720551	0.2823092631821688	8.452895249831298e-05	-0.6294770647408168	-0.1531951588519165	-0.0535273263832726	-0.02062000840677075	0.005407342854263826	-0.312824702092611	0.0564176607061665	-0.01202540801596021	0.111271219102369	-36.19806296128049	-23.33304991692626	-4.933296306267542	-3.750587692007813	3.68690823686425	-656.6115653604335	58.43856663616372	0.006803775850159267	0.2124236443881269	-0.5254938899144362	-0.4322785140716528	-0.01791777430989502	-0.5198591944871241	1.040285977888757	-0.693896485240307	-0.6938964852403067	0.3674684873443838	-0.007144157751652196	-0.3800758505463905	-0.00898478437228542	1.36889794159099e-07	1.516151885031091e-07	-8.659638790743523e-07	1.258858214055911e-06	1.168341364051639e-08	1.900047524817687e-07	-1.091181582704656e-06
1.53	-0.09989529153216772	0.06749096938727932	0.8811758274481351	0.6168153833891133	-0.2273171767437943	-0.1524551400490859	-0.2563885949560765	0.5904986879465608	0.5904986879465607	0.05135965014905638	0.1745026992602754	0.2407962748613387	0.05405457109302048	0.2299609719578175	0.1225230274852328	0.3058357363669785	-1.446866414107737	0.0184761969549489	-0.2972844049639802	0.7316027663689502	-1.757128979677387	-1.757128979677388	0.2862946657469	0.0001209831698388662	-0.6330564615777787	-0.1534313239472932	-0.04795394613622894	-0.02259939406937992	0.004788520865319929	-0.3099298587610477	0.06075855014497864	-0.01298640598990527	0.1061126247284511	-37.01155968201998	-21.84708942291124	-4.994677880129848	-3.850226795164762	3.169445709936797	-653.8695813155709	58.5285807522543	-0.01648622575281693	0.1999494020047857	-0.5632538252142213	-0.310857833751152	-0.04119031827565726	-0.4976499256252144	0.9755942057144863	-0.5419151960324352	-0.5419151960324161	0.4106996535751661	0.008848020847910578	-0.3328798977027992	-0.02670775674698402	1.463375415770782e-07	1.507202148941484e-07	-9.883809355879505e-07	1.266715839926914e-06	2.521069976477273e-08	1.898684150616267e-07	-1.167916211135286e-06
1.54	-0.09759678554767644	0.06872596295321322	0.8842054478508407	0.6023332868882326	-0.2271340384555317	-0.1554528721527525	-0.2490250499733035	0.5729029284931786	0.5729029284931785	0.05424195869364141	0.1745040666272635	0.2344501459409757	0.05251978060258455	0.2297067227468628	0.1244535274610065	0.3000278477505157	-1.449346323038124	0.01815291885037135	-0.3022456602700751	0.7409892008153482	-1.761764702439307	-1.761764702439307	0.2901450088131379	0.0001497497620191289	-0.6360761903120081	-0.1534985044277346	-0.04238056588918528	-0.02457877973198926	0.004169698876375889	-0.3070350154294845	0.0650994395837908	-0.01394740396385029	0.1009540303545333	-37.78253789083907	-20.37060578898926	-5.053953265455761	-3.954503638627842	2.650030390993519	-651.2862291003646	58.69727109233028	-0.03328109425403106	0.1858856798556631	-0.5977859255911885	-0.1842613121053342	-0.01526579071954004	-0.4984332313598909	0.8998507335701228	-0.3842884462568482	-0.3842884462568481	0.3404565876456916	-0.008681682783744812	-0.2681422299998598	0.02481213861480007	1.55970955265274e-07	1.491538255415299e-07	-1.113398437348684e-06	1.268955583247804e-06	3.922780234821098e-08	1.883401868988393e-07	-1.240196254323289e-06
